<mxfile host="Electron" modified="2023-07-11T20:22:56.238Z" agent="Mozilla/5.0 (Windows NT 10.0; Win64; x64) AppleWebKit/537.36 (KHTML, like Gecko) draw.io/21.6.1 Chrome/112.0.5615.204 Electron/24.6.1 Safari/537.36" etag="co3tCgunBiMPhGj7BMBN" version="21.6.1" type="device">
  <diagram id="C5RBs43oDa-KdzZeNtuy" name="Page-1">
    <mxGraphModel dx="724" dy="434" grid="1" gridSize="10" guides="1" tooltips="1" connect="1" arrows="1" fold="1" page="1" pageScale="1" pageWidth="827" pageHeight="1169" math="0" shadow="0">
      <root>
        <mxCell id="WIyWlLk6GJQsqaUBKTNV-0" />
        <mxCell id="WIyWlLk6GJQsqaUBKTNV-1" parent="WIyWlLk6GJQsqaUBKTNV-0" />
        <mxCell id="Tx0HjF_n2Jl848Rfjk3a-55" value="" style="rounded=0;whiteSpace=wrap;html=1;fontFamily=Helvetica;fontSize=11;fontColor=default;" parent="WIyWlLk6GJQsqaUBKTNV-1" vertex="1">
          <mxGeometry x="13.75" y="2850" width="806.25" height="330" as="geometry" />
        </mxCell>
        <mxCell id="T1DTE1MOMbU-z8p3hKDX-42" value="" style="rounded=0;whiteSpace=wrap;html=1;strokeColor=default;fontFamily=Helvetica;fontSize=11;fontColor=default;fillColor=default;" parent="WIyWlLk6GJQsqaUBKTNV-1" vertex="1">
          <mxGeometry x="13.75" y="1430" width="810" height="1410" as="geometry" />
        </mxCell>
        <mxCell id="7MKRyOwVHsWjaKdlt9Hi-30" value="" style="rounded=0;whiteSpace=wrap;html=1;strokeColor=default;fontFamily=Helvetica;fontSize=11;fontColor=default;fillColor=default;" parent="WIyWlLk6GJQsqaUBKTNV-1" vertex="1">
          <mxGeometry x="10.75" y="680" width="620" height="720" as="geometry" />
        </mxCell>
        <mxCell id="6UDPlUxUBq1qnUhSFTvR-61" value="" style="rounded=0;whiteSpace=wrap;html=1;shadow=0;strokeColor=default;strokeWidth=1;fontFamily=Helvetica;fontSize=12;fontColor=default;fillColor=default;" parent="WIyWlLk6GJQsqaUBKTNV-1" vertex="1">
          <mxGeometry x="10" y="30" width="610" height="630" as="geometry" />
        </mxCell>
        <mxCell id="7MKRyOwVHsWjaKdlt9Hi-7" style="edgeStyle=none;rounded=0;orthogonalLoop=1;jettySize=auto;html=1;shadow=0;labelBackgroundColor=none;strokeColor=default;strokeWidth=1;fontFamily=Helvetica;fontSize=11;fontColor=default;endArrow=classic;endFill=1;endSize=6;" parent="WIyWlLk6GJQsqaUBKTNV-1" source="WIyWlLk6GJQsqaUBKTNV-3" target="7MKRyOwVHsWjaKdlt9Hi-8" edge="1">
          <mxGeometry relative="1" as="geometry">
            <mxPoint x="219.9999999999999" y="160" as="targetPoint" />
          </mxGeometry>
        </mxCell>
        <mxCell id="WIyWlLk6GJQsqaUBKTNV-3" value="Forest Intro" style="rounded=1;whiteSpace=wrap;html=1;fontSize=12;glass=0;strokeWidth=1;shadow=0;" parent="WIyWlLk6GJQsqaUBKTNV-1" vertex="1">
          <mxGeometry x="181.25" y="70" width="77.5" height="40" as="geometry" />
        </mxCell>
        <mxCell id="WIyWlLk6GJQsqaUBKTNV-4" value="Leave" style="rounded=0;html=1;jettySize=auto;orthogonalLoop=1;fontSize=11;endArrow=classic;endFill=1;endSize=6;strokeWidth=1;shadow=0;labelBackgroundColor=none;exitX=1;exitY=0.5;exitDx=0;exitDy=0;" parent="WIyWlLk6GJQsqaUBKTNV-1" source="7MKRyOwVHsWjaKdlt9Hi-8" target="7MKRyOwVHsWjaKdlt9Hi-2" edge="1">
          <mxGeometry x="0.0082" y="20" relative="1" as="geometry">
            <mxPoint y="-1" as="offset" />
            <mxPoint x="10" y="210" as="targetPoint" />
            <mxPoint x="220" y="250" as="sourcePoint" />
          </mxGeometry>
        </mxCell>
        <mxCell id="WIyWlLk6GJQsqaUBKTNV-5" value="Investigate" style="rounded=0;html=1;jettySize=auto;orthogonalLoop=1;fontSize=11;endArrow=classic;endFill=1;endSize=6;strokeWidth=1;shadow=0;labelBackgroundColor=none;exitX=0;exitY=0.5;exitDx=0;exitDy=0;" parent="WIyWlLk6GJQsqaUBKTNV-1" source="7MKRyOwVHsWjaKdlt9Hi-8" target="7MKRyOwVHsWjaKdlt9Hi-0" edge="1">
          <mxGeometry x="0.1156" y="-30" relative="1" as="geometry">
            <mxPoint y="1" as="offset" />
            <mxPoint x="20" y="210" as="targetPoint" />
            <mxPoint x="265" y="205" as="sourcePoint" />
          </mxGeometry>
        </mxCell>
        <mxCell id="6UDPlUxUBq1qnUhSFTvR-5" style="rounded=0;orthogonalLoop=1;jettySize=auto;html=1;fontFamily=Helvetica;fontSize=12;fontColor=default;endArrow=classic;endFill=1;" parent="WIyWlLk6GJQsqaUBKTNV-1" source="WIyWlLk6GJQsqaUBKTNV-11" target="6UDPlUxUBq1qnUhSFTvR-36" edge="1">
          <mxGeometry relative="1" as="geometry">
            <mxPoint x="220" y="340" as="targetPoint" />
          </mxGeometry>
        </mxCell>
        <mxCell id="WIyWlLk6GJQsqaUBKTNV-11" value="Forest of Fairie" style="rounded=1;whiteSpace=wrap;html=1;fontSize=12;glass=0;strokeWidth=1;shadow=0;" parent="WIyWlLk6GJQsqaUBKTNV-1" vertex="1">
          <mxGeometry x="152.5" y="270" width="135" height="50" as="geometry" />
        </mxCell>
        <mxCell id="6UDPlUxUBq1qnUhSFTvR-2" value="Intro" style="text;strokeColor=none;align=center;fillColor=none;html=1;verticalAlign=middle;whiteSpace=wrap;rounded=0;" parent="WIyWlLk6GJQsqaUBKTNV-1" vertex="1">
          <mxGeometry x="17.5" y="40" width="60" height="30" as="geometry" />
        </mxCell>
        <mxCell id="6UDPlUxUBq1qnUhSFTvR-9" value="You look weird! What are you?" style="shape=connector;rounded=0;orthogonalLoop=1;jettySize=auto;html=1;shadow=0;labelBackgroundColor=none;strokeColor=default;strokeWidth=1;fontFamily=Helvetica;fontSize=11;fontColor=default;endArrow=block;endFill=0;endSize=8;exitX=1;exitY=0.5;exitDx=0;exitDy=0;exitPerimeter=0;" parent="WIyWlLk6GJQsqaUBKTNV-1" edge="1">
          <mxGeometry x="1" y="73" relative="1" as="geometry">
            <mxPoint x="270.24091308461743" y="430.1963740200056" as="targetPoint" />
            <mxPoint x="5" y="12" as="offset" />
          </mxGeometry>
        </mxCell>
        <mxCell id="6UDPlUxUBq1qnUhSFTvR-19" value="You&#39;re... a talking mushroom?" style="shape=connector;rounded=0;orthogonalLoop=1;jettySize=auto;html=1;shadow=0;labelBackgroundColor=none;strokeColor=default;strokeWidth=1;fontFamily=Helvetica;fontSize=11;fontColor=default;endArrow=block;endFill=0;endSize=8;exitX=0;exitY=0.5;exitDx=0;exitDy=0;exitPerimeter=0;" parent="WIyWlLk6GJQsqaUBKTNV-1" edge="1">
          <mxGeometry x="1" y="-42" relative="1" as="geometry">
            <mxPoint x="-4" y="4" as="offset" />
            <mxPoint x="164.04657607886702" y="430.33608318193205" as="targetPoint" />
          </mxGeometry>
        </mxCell>
        <mxCell id="6UDPlUxUBq1qnUhSFTvR-33" value="A little help would be nice" style="shape=connector;rounded=0;orthogonalLoop=1;jettySize=auto;html=1;shadow=0;labelBackgroundColor=none;strokeColor=default;strokeWidth=1;fontFamily=Helvetica;fontSize=12;fontColor=default;endArrow=block;endFill=0;endSize=8;exitX=0;exitY=0.5;exitDx=0;exitDy=0;" parent="WIyWlLk6GJQsqaUBKTNV-1" edge="1">
          <mxGeometry x="1" y="-56" relative="1" as="geometry">
            <mxPoint x="-3" y="4" as="offset" />
            <mxPoint x="175.0672302547921" y="585.1273310868808" as="targetPoint" />
          </mxGeometry>
        </mxCell>
        <mxCell id="6UDPlUxUBq1qnUhSFTvR-41" style="shape=connector;rounded=0;orthogonalLoop=1;jettySize=auto;html=1;shadow=0;labelBackgroundColor=none;strokeColor=default;strokeWidth=1;fontFamily=Helvetica;fontSize=12;fontColor=default;endArrow=classic;endFill=1;endSize=6;" parent="WIyWlLk6GJQsqaUBKTNV-1" source="6UDPlUxUBq1qnUhSFTvR-36" target="6UDPlUxUBq1qnUhSFTvR-42" edge="1">
          <mxGeometry relative="1" as="geometry">
            <mxPoint x="218.79" y="822.5" as="targetPoint" />
          </mxGeometry>
        </mxCell>
        <mxCell id="6UDPlUxUBq1qnUhSFTvR-36" value="Welcome to Sakura Glade" style="whiteSpace=wrap;html=1;rounded=1;shadow=0;strokeWidth=1;" parent="WIyWlLk6GJQsqaUBKTNV-1" vertex="1">
          <mxGeometry x="160.04" y="380" width="120" height="60" as="geometry" />
        </mxCell>
        <mxCell id="6UDPlUxUBq1qnUhSFTvR-44" value="" style="shape=connector;rounded=0;orthogonalLoop=1;jettySize=auto;html=1;shadow=0;labelBackgroundColor=none;strokeColor=default;strokeWidth=1;fontFamily=Helvetica;fontSize=12;fontColor=default;endArrow=classic;endFill=1;endSize=6;" parent="WIyWlLk6GJQsqaUBKTNV-1" source="6UDPlUxUBq1qnUhSFTvR-42" target="7MKRyOwVHsWjaKdlt9Hi-23" edge="1">
          <mxGeometry x="0.1175" y="28" relative="1" as="geometry">
            <mxPoint x="1" as="offset" />
            <mxPoint x="340.2185714285716" y="582.5" as="targetPoint" />
          </mxGeometry>
        </mxCell>
        <mxCell id="Tx0HjF_n2Jl848Rfjk3a-66" value="don&#39;t ask" style="edgeLabel;html=1;align=center;verticalAlign=middle;resizable=0;points=[];fontSize=11;fontFamily=Helvetica;fontColor=default;" parent="6UDPlUxUBq1qnUhSFTvR-44" vertex="1" connectable="0">
          <mxGeometry x="-0.1385" y="4" relative="1" as="geometry">
            <mxPoint as="offset" />
          </mxGeometry>
        </mxCell>
        <mxCell id="6UDPlUxUBq1qnUhSFTvR-49" value="&lt;font style=&quot;font-size: 11px;&quot;&gt;&lt;br&gt;&lt;/font&gt;" style="shape=connector;rounded=0;orthogonalLoop=1;jettySize=auto;html=1;shadow=0;labelBackgroundColor=none;strokeColor=default;strokeWidth=1;fontFamily=Helvetica;fontSize=12;fontColor=default;endArrow=classic;endFill=1;endSize=6;" parent="WIyWlLk6GJQsqaUBKTNV-1" source="6UDPlUxUBq1qnUhSFTvR-42" target="6UDPlUxUBq1qnUhSFTvR-50" edge="1">
          <mxGeometry x="0.1368" y="2" relative="1" as="geometry">
            <mxPoint x="218.79" y="862.5" as="targetPoint" />
            <mxPoint as="offset" />
          </mxGeometry>
        </mxCell>
        <mxCell id="Tx0HjF_n2Jl848Rfjk3a-68" value="ask questions" style="edgeLabel;html=1;align=center;verticalAlign=middle;resizable=0;points=[];fontSize=11;fontFamily=Helvetica;fontColor=default;" parent="6UDPlUxUBq1qnUhSFTvR-49" vertex="1" connectable="0">
          <mxGeometry x="-0.0477" y="1" relative="1" as="geometry">
            <mxPoint as="offset" />
          </mxGeometry>
        </mxCell>
        <mxCell id="6UDPlUxUBq1qnUhSFTvR-42" value="" style="rhombus;whiteSpace=wrap;html=1;shadow=0;strokeColor=default;strokeWidth=1;fontFamily=Helvetica;fontSize=12;fontColor=default;fillColor=default;" parent="WIyWlLk6GJQsqaUBKTNV-1" vertex="1">
          <mxGeometry x="193.79" y="472.5" width="50" height="50" as="geometry" />
        </mxCell>
        <mxCell id="6UDPlUxUBq1qnUhSFTvR-47" value="" style="shape=connector;rounded=0;orthogonalLoop=1;jettySize=auto;html=1;shadow=0;labelBackgroundColor=none;strokeColor=default;strokeWidth=1;fontFamily=Helvetica;fontSize=12;fontColor=default;endArrow=classic;endFill=1;endSize=6;" parent="WIyWlLk6GJQsqaUBKTNV-1" source="7MKRyOwVHsWjaKdlt9Hi-23" target="6UDPlUxUBq1qnUhSFTvR-63" edge="1">
          <mxGeometry relative="1" as="geometry">
            <mxPoint x="355.76555023923447" y="960" as="sourcePoint" />
            <mxPoint x="236.77782608695657" y="1030" as="targetPoint" />
          </mxGeometry>
        </mxCell>
        <mxCell id="6UDPlUxUBq1qnUhSFTvR-51" value="&lt;font style=&quot;font-size: 11px;&quot;&gt;&lt;br&gt;&lt;/font&gt;" style="shape=connector;rounded=0;orthogonalLoop=1;jettySize=auto;html=1;shadow=0;labelBackgroundColor=none;strokeColor=default;strokeWidth=1;fontFamily=Helvetica;fontSize=12;fontColor=default;endArrow=classic;endFill=1;endSize=6;" parent="WIyWlLk6GJQsqaUBKTNV-1" source="6UDPlUxUBq1qnUhSFTvR-50" target="6UDPlUxUBq1qnUhSFTvR-63" edge="1">
          <mxGeometry x="-0.3388" y="23" relative="1" as="geometry">
            <mxPoint as="offset" />
            <mxPoint x="208.75" y="1030" as="targetPoint" />
          </mxGeometry>
        </mxCell>
        <mxCell id="Tx0HjF_n2Jl848Rfjk3a-39" value="That&#39;s all" style="edgeLabel;html=1;align=center;verticalAlign=middle;resizable=0;points=[];fontSize=11;fontFamily=Helvetica;fontColor=default;" parent="6UDPlUxUBq1qnUhSFTvR-51" vertex="1" connectable="0">
          <mxGeometry x="-0.5885" y="1" relative="1" as="geometry">
            <mxPoint as="offset" />
          </mxGeometry>
        </mxCell>
        <mxCell id="6UDPlUxUBq1qnUhSFTvR-54" value="" style="shape=connector;rounded=0;orthogonalLoop=1;jettySize=auto;html=1;shadow=0;labelBackgroundColor=none;strokeColor=default;strokeWidth=1;fontFamily=Helvetica;fontSize=12;fontColor=default;endArrow=classic;endFill=1;endSize=6;" parent="WIyWlLk6GJQsqaUBKTNV-1" source="6UDPlUxUBq1qnUhSFTvR-50" target="7MKRyOwVHsWjaKdlt9Hi-22" edge="1">
          <mxGeometry x="-0.3657" y="14" relative="1" as="geometry">
            <mxPoint as="offset" />
            <mxPoint x="522.53" y="605" as="targetPoint" />
          </mxGeometry>
        </mxCell>
        <mxCell id="Tx0HjF_n2Jl848Rfjk3a-36" value="Question" style="edgeLabel;html=1;align=center;verticalAlign=middle;resizable=0;points=[];fontSize=11;fontFamily=Helvetica;fontColor=default;" parent="6UDPlUxUBq1qnUhSFTvR-54" vertex="1" connectable="0">
          <mxGeometry x="0.0854" relative="1" as="geometry">
            <mxPoint as="offset" />
          </mxGeometry>
        </mxCell>
        <mxCell id="6UDPlUxUBq1qnUhSFTvR-50" value="" style="rhombus;whiteSpace=wrap;html=1;shadow=0;strokeColor=default;strokeWidth=1;fontFamily=Helvetica;fontSize=12;fontColor=default;fillColor=default;" parent="WIyWlLk6GJQsqaUBKTNV-1" vertex="1">
          <mxGeometry x="280.0400000000001" y="550" width="55" height="50" as="geometry" />
        </mxCell>
        <mxCell id="6UDPlUxUBq1qnUhSFTvR-55" style="shape=connector;rounded=0;orthogonalLoop=1;jettySize=auto;html=1;shadow=0;labelBackgroundColor=none;strokeColor=default;strokeWidth=1;fontFamily=Helvetica;fontSize=12;fontColor=default;endArrow=classic;endFill=1;endSize=6;" parent="WIyWlLk6GJQsqaUBKTNV-1" source="7MKRyOwVHsWjaKdlt9Hi-22" target="7MKRyOwVHsWjaKdlt9Hi-24" edge="1">
          <mxGeometry relative="1" as="geometry">
            <mxPoint x="417.53000000000003" y="575" as="targetPoint" />
            <mxPoint x="472.5826315789474" y="585" as="sourcePoint" />
          </mxGeometry>
        </mxCell>
        <mxCell id="6UDPlUxUBq1qnUhSFTvR-62" value="Day 1" style="text;html=1;strokeColor=none;fillColor=none;align=center;verticalAlign=middle;whiteSpace=wrap;rounded=0;fontSize=12;fontFamily=Helvetica;fontColor=default;" parent="WIyWlLk6GJQsqaUBKTNV-1" vertex="1">
          <mxGeometry x="20.75" y="690" width="60" height="30" as="geometry" />
        </mxCell>
        <mxCell id="6UDPlUxUBq1qnUhSFTvR-64" style="shape=connector;rounded=0;orthogonalLoop=1;jettySize=auto;html=1;shadow=0;labelBackgroundColor=none;strokeColor=default;strokeWidth=1;fontFamily=Helvetica;fontSize=12;fontColor=default;endArrow=classic;endFill=1;endSize=6;" parent="WIyWlLk6GJQsqaUBKTNV-1" source="6UDPlUxUBq1qnUhSFTvR-63" target="T1DTE1MOMbU-z8p3hKDX-0" edge="1">
          <mxGeometry relative="1" as="geometry">
            <mxPoint x="246.75" y="780" as="targetPoint" />
          </mxGeometry>
        </mxCell>
        <mxCell id="6UDPlUxUBq1qnUhSFTvR-63" value="Dawn of Day 1&lt;br&gt;Sakura Glade Square" style="rounded=1;whiteSpace=wrap;html=1;shadow=0;strokeColor=default;strokeWidth=1;fontFamily=Helvetica;fontSize=12;fontColor=default;fillColor=default;" parent="WIyWlLk6GJQsqaUBKTNV-1" vertex="1">
          <mxGeometry x="180" y="700" width="120" height="60" as="geometry" />
        </mxCell>
        <mxCell id="7MKRyOwVHsWjaKdlt9Hi-4" style="edgeStyle=none;shape=connector;rounded=0;orthogonalLoop=1;jettySize=auto;html=1;shadow=0;labelBackgroundColor=none;strokeColor=default;strokeWidth=1;fontFamily=Helvetica;fontSize=11;fontColor=default;endArrow=classic;endFill=1;endSize=6;" parent="WIyWlLk6GJQsqaUBKTNV-1" source="7MKRyOwVHsWjaKdlt9Hi-0" target="WIyWlLk6GJQsqaUBKTNV-11" edge="1">
          <mxGeometry relative="1" as="geometry" />
        </mxCell>
        <mxCell id="7MKRyOwVHsWjaKdlt9Hi-0" value="Dialogue" style="ellipse;whiteSpace=wrap;html=1;fontFamily=Helvetica;fontSize=11;fontColor=default;" parent="WIyWlLk6GJQsqaUBKTNV-1" vertex="1">
          <mxGeometry x="130" y="190" width="60" height="30" as="geometry" />
        </mxCell>
        <mxCell id="7MKRyOwVHsWjaKdlt9Hi-5" style="edgeStyle=none;shape=connector;rounded=0;orthogonalLoop=1;jettySize=auto;html=1;shadow=0;labelBackgroundColor=none;strokeColor=default;strokeWidth=1;fontFamily=Helvetica;fontSize=11;fontColor=default;endArrow=classic;endFill=1;endSize=6;" parent="WIyWlLk6GJQsqaUBKTNV-1" source="7MKRyOwVHsWjaKdlt9Hi-2" target="WIyWlLk6GJQsqaUBKTNV-11" edge="1">
          <mxGeometry relative="1" as="geometry" />
        </mxCell>
        <mxCell id="7MKRyOwVHsWjaKdlt9Hi-2" value="Dialogue" style="ellipse;whiteSpace=wrap;html=1;fontFamily=Helvetica;fontSize=11;fontColor=default;" parent="WIyWlLk6GJQsqaUBKTNV-1" vertex="1">
          <mxGeometry x="245" y="190" width="60" height="30" as="geometry" />
        </mxCell>
        <mxCell id="7MKRyOwVHsWjaKdlt9Hi-8" value="" style="rhombus;whiteSpace=wrap;html=1;fontFamily=Helvetica;fontSize=11;fontColor=default;" parent="WIyWlLk6GJQsqaUBKTNV-1" vertex="1">
          <mxGeometry x="192.5" y="130" width="55" height="50" as="geometry" />
        </mxCell>
        <mxCell id="7MKRyOwVHsWjaKdlt9Hi-22" value="Dialogue" style="ellipse;whiteSpace=wrap;html=1;strokeColor=default;fontFamily=Helvetica;fontSize=11;fontColor=default;fillColor=default;" parent="WIyWlLk6GJQsqaUBKTNV-1" vertex="1">
          <mxGeometry x="430.04" y="560" width="55" height="30" as="geometry" />
        </mxCell>
        <mxCell id="7MKRyOwVHsWjaKdlt9Hi-23" value="Dialogue" style="ellipse;whiteSpace=wrap;html=1;strokeColor=default;fontFamily=Helvetica;fontSize=11;fontColor=default;fillColor=default;" parent="WIyWlLk6GJQsqaUBKTNV-1" vertex="1">
          <mxGeometry x="108.32000000000002" y="570" width="58.57" height="30" as="geometry" />
        </mxCell>
        <mxCell id="7MKRyOwVHsWjaKdlt9Hi-25" style="edgeStyle=none;shape=connector;rounded=0;orthogonalLoop=1;jettySize=auto;html=1;shadow=0;labelBackgroundColor=none;strokeColor=default;strokeWidth=1;fontFamily=Helvetica;fontSize=11;fontColor=default;endArrow=classic;endFill=1;endSize=6;" parent="WIyWlLk6GJQsqaUBKTNV-1" source="7MKRyOwVHsWjaKdlt9Hi-24" target="6UDPlUxUBq1qnUhSFTvR-50" edge="1">
          <mxGeometry relative="1" as="geometry" />
        </mxCell>
        <mxCell id="7MKRyOwVHsWjaKdlt9Hi-24" value="Points +1" style="rounded=0;whiteSpace=wrap;html=1;strokeColor=default;fontFamily=Helvetica;fontSize=11;fontColor=default;fillColor=default;" parent="WIyWlLk6GJQsqaUBKTNV-1" vertex="1">
          <mxGeometry x="432.54" y="612.5" width="50" height="30" as="geometry" />
        </mxCell>
        <mxCell id="T1DTE1MOMbU-z8p3hKDX-4" value="Talk to Kohana" style="edgeStyle=none;shape=connector;rounded=0;orthogonalLoop=1;jettySize=auto;html=1;labelBackgroundColor=default;strokeColor=default;fontFamily=Helvetica;fontSize=11;fontColor=default;endArrow=classic;" parent="WIyWlLk6GJQsqaUBKTNV-1" source="T1DTE1MOMbU-z8p3hKDX-0" target="T1DTE1MOMbU-z8p3hKDX-9" edge="1">
          <mxGeometry relative="1" as="geometry">
            <mxPoint x="161.41800000000012" y="900" as="targetPoint" />
          </mxGeometry>
        </mxCell>
        <mxCell id="T1DTE1MOMbU-z8p3hKDX-7" value="Go to the Sacred Tree" style="edgeStyle=none;shape=connector;rounded=0;orthogonalLoop=1;jettySize=auto;html=1;labelBackgroundColor=default;strokeColor=default;fontFamily=Helvetica;fontSize=11;fontColor=default;endArrow=classic;" parent="WIyWlLk6GJQsqaUBKTNV-1" source="T1DTE1MOMbU-z8p3hKDX-0" target="T1DTE1MOMbU-z8p3hKDX-8" edge="1">
          <mxGeometry relative="1" as="geometry">
            <mxPoint x="383.75" y="910" as="targetPoint" />
          </mxGeometry>
        </mxCell>
        <mxCell id="T1DTE1MOMbU-z8p3hKDX-15" value="Look for Nobu&amp;nbsp;&lt;br&gt;after acquiring Replica)" style="edgeStyle=none;shape=connector;rounded=0;orthogonalLoop=1;jettySize=auto;html=1;labelBackgroundColor=default;strokeColor=default;fontFamily=Helvetica;fontSize=11;fontColor=default;endArrow=classic;" parent="WIyWlLk6GJQsqaUBKTNV-1" source="T1DTE1MOMbU-z8p3hKDX-0" target="T1DTE1MOMbU-z8p3hKDX-16" edge="1">
          <mxGeometry x="-0.0013" relative="1" as="geometry">
            <mxPoint x="603.75" y="910" as="targetPoint" />
            <mxPoint as="offset" />
          </mxGeometry>
        </mxCell>
        <mxCell id="T1DTE1MOMbU-z8p3hKDX-0" value="" style="rhombus;whiteSpace=wrap;html=1;fontSize=11;" parent="WIyWlLk6GJQsqaUBKTNV-1" vertex="1">
          <mxGeometry x="219.75" y="790" width="43.25" height="40" as="geometry" />
        </mxCell>
        <mxCell id="T1DTE1MOMbU-z8p3hKDX-13" style="edgeStyle=none;shape=connector;rounded=0;orthogonalLoop=1;jettySize=auto;html=1;labelBackgroundColor=default;strokeColor=default;fontFamily=Helvetica;fontSize=11;fontColor=default;endArrow=classic;" parent="WIyWlLk6GJQsqaUBKTNV-1" source="T1DTE1MOMbU-z8p3hKDX-8" target="T1DTE1MOMbU-z8p3hKDX-14" edge="1">
          <mxGeometry relative="1" as="geometry">
            <mxPoint x="353.75" y="1040" as="targetPoint" />
          </mxGeometry>
        </mxCell>
        <mxCell id="T1DTE1MOMbU-z8p3hKDX-8" value="&lt;font style=&quot;font-size: 12px;&quot;&gt;Sacred Tree&lt;br&gt;Amaya&lt;/font&gt;" style="rounded=1;whiteSpace=wrap;html=1;fontFamily=Helvetica;fontSize=11;fontColor=default;" parent="WIyWlLk6GJQsqaUBKTNV-1" vertex="1">
          <mxGeometry x="221.75" y="955" width="120" height="60" as="geometry" />
        </mxCell>
        <mxCell id="T1DTE1MOMbU-z8p3hKDX-11" style="edgeStyle=none;shape=connector;rounded=0;orthogonalLoop=1;jettySize=auto;html=1;labelBackgroundColor=default;strokeColor=default;fontFamily=Helvetica;fontSize=11;fontColor=default;endArrow=classic;" parent="WIyWlLk6GJQsqaUBKTNV-1" source="T1DTE1MOMbU-z8p3hKDX-9" target="T1DTE1MOMbU-z8p3hKDX-12" edge="1">
          <mxGeometry relative="1" as="geometry">
            <mxPoint x="123.74800000000003" y="1050" as="targetPoint" />
          </mxGeometry>
        </mxCell>
        <mxCell id="T1DTE1MOMbU-z8p3hKDX-9" value="&lt;font style=&quot;font-size: 12px;&quot;&gt;Sakura Glade Square&lt;br&gt;Kohana&lt;/font&gt;" style="rounded=1;whiteSpace=wrap;html=1;fontFamily=Helvetica;fontSize=11;fontColor=default;" parent="WIyWlLk6GJQsqaUBKTNV-1" vertex="1">
          <mxGeometry x="64.99800000000012" y="910" width="120" height="60" as="geometry" />
        </mxCell>
        <mxCell id="T1DTE1MOMbU-z8p3hKDX-20" style="edgeStyle=none;shape=connector;rounded=0;orthogonalLoop=1;jettySize=auto;html=1;labelBackgroundColor=default;strokeColor=default;fontFamily=Helvetica;fontSize=11;fontColor=default;endArrow=classic;" parent="WIyWlLk6GJQsqaUBKTNV-1" source="T1DTE1MOMbU-z8p3hKDX-12" target="dj7vZ8H88N9FHxcjNUMn-37" edge="1">
          <mxGeometry relative="1" as="geometry">
            <mxPoint x="-96.25" y="1010" as="targetPoint" />
          </mxGeometry>
        </mxCell>
        <mxCell id="T1DTE1MOMbU-z8p3hKDX-12" value="Dialogue" style="ellipse;whiteSpace=wrap;html=1;fontFamily=Helvetica;fontSize=11;fontColor=default;" parent="WIyWlLk6GJQsqaUBKTNV-1" vertex="1">
          <mxGeometry x="95" y="990" width="60" height="30" as="geometry" />
        </mxCell>
        <mxCell id="T1DTE1MOMbU-z8p3hKDX-22" style="edgeStyle=none;shape=connector;rounded=0;orthogonalLoop=1;jettySize=auto;html=1;labelBackgroundColor=default;strokeColor=default;fontFamily=Helvetica;fontSize=11;fontColor=default;endArrow=classic;" parent="WIyWlLk6GJQsqaUBKTNV-1" source="T1DTE1MOMbU-z8p3hKDX-14" target="T1DTE1MOMbU-z8p3hKDX-21" edge="1">
          <mxGeometry relative="1" as="geometry">
            <mxPoint x="310.54999999999995" y="1049.9999999999998" as="targetPoint" />
          </mxGeometry>
        </mxCell>
        <mxCell id="T1DTE1MOMbU-z8p3hKDX-14" value="Dialogue" style="ellipse;whiteSpace=wrap;html=1;fontFamily=Helvetica;fontSize=11;fontColor=default;" parent="WIyWlLk6GJQsqaUBKTNV-1" vertex="1">
          <mxGeometry x="251.75000000000003" y="1045" width="60" height="30" as="geometry" />
        </mxCell>
        <mxCell id="T1DTE1MOMbU-z8p3hKDX-17" style="edgeStyle=none;shape=connector;rounded=0;orthogonalLoop=1;jettySize=auto;html=1;labelBackgroundColor=default;strokeColor=default;fontFamily=Helvetica;fontSize=11;fontColor=default;endArrow=classic;" parent="WIyWlLk6GJQsqaUBKTNV-1" source="T1DTE1MOMbU-z8p3hKDX-16" target="T1DTE1MOMbU-z8p3hKDX-18" edge="1">
          <mxGeometry relative="1" as="geometry">
            <mxPoint x="623.75" y="1050" as="targetPoint" />
          </mxGeometry>
        </mxCell>
        <mxCell id="T1DTE1MOMbU-z8p3hKDX-16" value="&lt;font style=&quot;font-size: 12px;&quot;&gt;Nobu&#39;s House&lt;br&gt;empty&lt;/font&gt;" style="rounded=1;whiteSpace=wrap;html=1;fontFamily=Helvetica;fontSize=11;fontColor=default;" parent="WIyWlLk6GJQsqaUBKTNV-1" vertex="1">
          <mxGeometry x="430.04" y="910" width="120" height="60" as="geometry" />
        </mxCell>
        <mxCell id="T1DTE1MOMbU-z8p3hKDX-23" style="edgeStyle=none;shape=connector;rounded=0;orthogonalLoop=1;jettySize=auto;html=1;labelBackgroundColor=default;strokeColor=default;fontFamily=Helvetica;fontSize=11;fontColor=default;endArrow=classic;" parent="WIyWlLk6GJQsqaUBKTNV-1" source="T1DTE1MOMbU-z8p3hKDX-18" target="T1DTE1MOMbU-z8p3hKDX-21" edge="1">
          <mxGeometry relative="1" as="geometry">
            <mxPoint x="521.25" y="1044.9999999999998" as="targetPoint" />
          </mxGeometry>
        </mxCell>
        <mxCell id="T1DTE1MOMbU-z8p3hKDX-18" value="Find Medical Notice" style="rounded=0;whiteSpace=wrap;html=1;fontFamily=Helvetica;fontSize=11;fontColor=default;" parent="WIyWlLk6GJQsqaUBKTNV-1" vertex="1">
          <mxGeometry x="430.04" y="995" width="120" height="40" as="geometry" />
        </mxCell>
        <mxCell id="T1DTE1MOMbU-z8p3hKDX-24" style="edgeStyle=orthogonalEdgeStyle;shape=connector;rounded=0;orthogonalLoop=1;jettySize=auto;html=1;labelBackgroundColor=default;strokeColor=default;fontFamily=Helvetica;fontSize=11;fontColor=default;endArrow=classic;" parent="WIyWlLk6GJQsqaUBKTNV-1" source="T1DTE1MOMbU-z8p3hKDX-21" target="T1DTE1MOMbU-z8p3hKDX-0" edge="1">
          <mxGeometry relative="1" as="geometry">
            <mxPoint x="196.0147337354598" y="817.8526138218676" as="targetPoint" />
            <mxPoint x="311.87" y="1160" as="sourcePoint" />
            <Array as="points">
              <mxPoint x="43.75" y="1170" />
              <mxPoint x="43.75" y="817" />
            </Array>
          </mxGeometry>
        </mxCell>
        <mxCell id="T1DTE1MOMbU-z8p3hKDX-25" value="if all options done" style="edgeStyle=none;shape=connector;rounded=0;orthogonalLoop=1;jettySize=auto;html=1;labelBackgroundColor=default;strokeColor=default;fontFamily=Helvetica;fontSize=11;fontColor=default;endArrow=classic;" parent="WIyWlLk6GJQsqaUBKTNV-1" source="T1DTE1MOMbU-z8p3hKDX-21" target="T1DTE1MOMbU-z8p3hKDX-26" edge="1">
          <mxGeometry relative="1" as="geometry">
            <mxPoint x="353.75" y="1260" as="targetPoint" />
          </mxGeometry>
        </mxCell>
        <mxCell id="T1DTE1MOMbU-z8p3hKDX-21" value="" style="rhombus;whiteSpace=wrap;html=1;fontFamily=Helvetica;fontSize=11;fontColor=default;" parent="WIyWlLk6GJQsqaUBKTNV-1" vertex="1">
          <mxGeometry x="224.75" y="1140" width="39.88" height="40" as="geometry" />
        </mxCell>
        <mxCell id="T1DTE1MOMbU-z8p3hKDX-31" style="edgeStyle=none;shape=connector;rounded=0;orthogonalLoop=1;jettySize=auto;html=1;labelBackgroundColor=default;strokeColor=default;fontFamily=Helvetica;fontSize=14;fontColor=default;endArrow=classic;" parent="WIyWlLk6GJQsqaUBKTNV-1" source="T1DTE1MOMbU-z8p3hKDX-26" target="T1DTE1MOMbU-z8p3hKDX-36" edge="1">
          <mxGeometry relative="1" as="geometry">
            <mxPoint x="353.75" y="1370" as="targetPoint" />
          </mxGeometry>
        </mxCell>
        <mxCell id="T1DTE1MOMbU-z8p3hKDX-26" value="&lt;font style=&quot;font-size: 12px;&quot;&gt;Sakura Glade Square&lt;br&gt;Fumiko&lt;/font&gt;" style="rounded=1;whiteSpace=wrap;html=1;fontFamily=Helvetica;fontSize=11;fontColor=default;" parent="WIyWlLk6GJQsqaUBKTNV-1" vertex="1">
          <mxGeometry x="185" y="1250" width="120" height="60" as="geometry" />
        </mxCell>
        <mxCell id="T1DTE1MOMbU-z8p3hKDX-27" value="&lt;font style=&quot;font-size: 11px;&quot;&gt;exclude options already played&lt;/font&gt;" style="shape=note;strokeWidth=1;fontSize=14;size=11;whiteSpace=wrap;html=1;rounded=0;shadow=0;comic=1;fillColor=none;strokeColor=default;fontFamily=Helvetica;fontColor=default;" parent="WIyWlLk6GJQsqaUBKTNV-1" vertex="1">
          <mxGeometry x="313.75" y="790" width="100" height="40" as="geometry" />
        </mxCell>
        <mxCell id="T1DTE1MOMbU-z8p3hKDX-28" value="" style="endArrow=none;dashed=1;html=1;rounded=0;labelBackgroundColor=default;strokeColor=default;fontFamily=Helvetica;fontSize=11;fontColor=default;shape=connector;" parent="WIyWlLk6GJQsqaUBKTNV-1" source="T1DTE1MOMbU-z8p3hKDX-0" target="T1DTE1MOMbU-z8p3hKDX-27" edge="1">
          <mxGeometry width="50" height="50" relative="1" as="geometry">
            <mxPoint x="463.75" y="810" as="sourcePoint" />
            <mxPoint x="353.75" y="830" as="targetPoint" />
          </mxGeometry>
        </mxCell>
        <mxCell id="T1DTE1MOMbU-z8p3hKDX-29" value="&lt;font style=&quot;font-size: 11px;&quot;&gt;exclude options alreaady asked&lt;/font&gt;" style="shape=note;strokeWidth=1;fontSize=14;size=11;whiteSpace=wrap;html=1;rounded=0;shadow=0;comic=1;fillColor=none;strokeColor=default;fontFamily=Helvetica;fontColor=default;" parent="WIyWlLk6GJQsqaUBKTNV-1" vertex="1">
          <mxGeometry x="335.03999999999996" y="500" width="95" height="40" as="geometry" />
        </mxCell>
        <mxCell id="T1DTE1MOMbU-z8p3hKDX-30" value="" style="endArrow=none;dashed=1;html=1;rounded=0;labelBackgroundColor=default;strokeColor=default;fontFamily=Helvetica;fontSize=14;fontColor=default;shape=connector;" parent="WIyWlLk6GJQsqaUBKTNV-1" source="6UDPlUxUBq1qnUhSFTvR-50" target="T1DTE1MOMbU-z8p3hKDX-29" edge="1">
          <mxGeometry width="50" height="50" relative="1" as="geometry">
            <mxPoint x="1002.53" y="555" as="sourcePoint" />
            <mxPoint x="892.53" y="575" as="targetPoint" />
          </mxGeometry>
        </mxCell>
        <mxCell id="T1DTE1MOMbU-z8p3hKDX-37" style="edgeStyle=none;shape=connector;rounded=0;orthogonalLoop=1;jettySize=auto;html=1;labelBackgroundColor=default;strokeColor=default;fontFamily=Helvetica;fontSize=14;fontColor=default;endArrow=classic;" parent="WIyWlLk6GJQsqaUBKTNV-1" source="T1DTE1MOMbU-z8p3hKDX-36" target="T1DTE1MOMbU-z8p3hKDX-41" edge="1">
          <mxGeometry relative="1" as="geometry">
            <mxPoint x="353.1300000000001" y="1480" as="targetPoint" />
          </mxGeometry>
        </mxCell>
        <mxCell id="T1DTE1MOMbU-z8p3hKDX-36" value="Dialogue" style="ellipse;whiteSpace=wrap;html=1;strokeColor=default;fontFamily=Helvetica;fontSize=11;fontColor=default;fillColor=default;" parent="WIyWlLk6GJQsqaUBKTNV-1" vertex="1">
          <mxGeometry x="211.88" y="1340" width="65" height="30" as="geometry" />
        </mxCell>
        <mxCell id="dj7vZ8H88N9FHxcjNUMn-0" style="edgeStyle=orthogonalEdgeStyle;rounded=0;orthogonalLoop=1;jettySize=auto;html=1;" parent="WIyWlLk6GJQsqaUBKTNV-1" source="T1DTE1MOMbU-z8p3hKDX-41" target="dj7vZ8H88N9FHxcjNUMn-7" edge="1">
          <mxGeometry relative="1" as="geometry">
            <mxPoint x="110.6349999999999" y="1550" as="targetPoint" />
          </mxGeometry>
        </mxCell>
        <mxCell id="T1DTE1MOMbU-z8p3hKDX-41" value="&lt;font style=&quot;font-size: 12px;&quot;&gt;Dawn of Day 2&lt;br&gt;Inn&lt;br&gt;&lt;/font&gt;" style="rounded=1;whiteSpace=wrap;html=1;strokeColor=default;fontFamily=Helvetica;fontSize=11;fontColor=default;fillColor=default;" parent="WIyWlLk6GJQsqaUBKTNV-1" vertex="1">
          <mxGeometry x="50.02" y="1450" width="120.62" height="60" as="geometry" />
        </mxCell>
        <mxCell id="T1DTE1MOMbU-z8p3hKDX-43" value="&lt;font style=&quot;font-size: 12px;&quot;&gt;Day 2&lt;/font&gt;" style="text;html=1;strokeColor=none;fillColor=none;align=center;verticalAlign=middle;whiteSpace=wrap;rounded=0;fontSize=11;fontFamily=Helvetica;fontColor=default;" parent="WIyWlLk6GJQsqaUBKTNV-1" vertex="1">
          <mxGeometry x="10" y="1430" width="60" height="30" as="geometry" />
        </mxCell>
        <mxCell id="dj7vZ8H88N9FHxcjNUMn-9" style="edgeStyle=orthogonalEdgeStyle;rounded=0;orthogonalLoop=1;jettySize=auto;html=1;fontFamily=Helvetica;fontSize=12;fontColor=default;" parent="WIyWlLk6GJQsqaUBKTNV-1" source="dj7vZ8H88N9FHxcjNUMn-7" target="dj7vZ8H88N9FHxcjNUMn-10" edge="1">
          <mxGeometry relative="1" as="geometry">
            <mxPoint x="110.65" y="1640" as="targetPoint" />
          </mxGeometry>
        </mxCell>
        <mxCell id="dj7vZ8H88N9FHxcjNUMn-7" value="&lt;font style=&quot;font-size: 11px;&quot;&gt;Receive Permit&lt;/font&gt;" style="rounded=0;whiteSpace=wrap;html=1;strokeColor=default;fontFamily=Helvetica;fontSize=12;fontColor=default;fillColor=default;" parent="WIyWlLk6GJQsqaUBKTNV-1" vertex="1">
          <mxGeometry x="60.02" y="1530" width="100" height="40" as="geometry" />
        </mxCell>
        <mxCell id="dj7vZ8H88N9FHxcjNUMn-14" style="edgeStyle=none;shape=connector;rounded=0;orthogonalLoop=1;jettySize=auto;html=1;labelBackgroundColor=default;strokeColor=default;fontFamily=Helvetica;fontSize=12;fontColor=default;endArrow=classic;" parent="WIyWlLk6GJQsqaUBKTNV-1" source="dj7vZ8H88N9FHxcjNUMn-10" target="dj7vZ8H88N9FHxcjNUMn-24" edge="1">
          <mxGeometry relative="1" as="geometry">
            <mxPoint x="110.65" y="1710" as="targetPoint" />
          </mxGeometry>
        </mxCell>
        <mxCell id="dj7vZ8H88N9FHxcjNUMn-10" value="Sacred Tree&lt;br&gt;Investigation" style="rounded=1;whiteSpace=wrap;html=1;strokeColor=default;fontFamily=Helvetica;fontSize=12;fontColor=default;fillColor=default;" parent="WIyWlLk6GJQsqaUBKTNV-1" vertex="1">
          <mxGeometry x="50.65" y="1590" width="120" height="60" as="geometry" />
        </mxCell>
        <mxCell id="dj7vZ8H88N9FHxcjNUMn-20" style="edgeStyle=none;shape=connector;rounded=0;orthogonalLoop=1;jettySize=auto;html=1;labelBackgroundColor=default;strokeColor=default;fontFamily=Helvetica;fontSize=12;fontColor=default;endArrow=classic;" parent="WIyWlLk6GJQsqaUBKTNV-1" source="dj7vZ8H88N9FHxcjNUMn-19" target="dj7vZ8H88N9FHxcjNUMn-21" edge="1">
          <mxGeometry relative="1" as="geometry">
            <mxPoint x="120.64000000000001" y="1760" as="targetPoint" />
          </mxGeometry>
        </mxCell>
        <mxCell id="dj7vZ8H88N9FHxcjNUMn-19" value="&lt;font style=&quot;font-size: 11px;&quot;&gt;Find Black Ooze&lt;/font&gt;" style="rounded=0;whiteSpace=wrap;html=1;strokeColor=default;fontFamily=Helvetica;fontSize=12;fontColor=default;fillColor=default;" parent="WIyWlLk6GJQsqaUBKTNV-1" vertex="1">
          <mxGeometry x="57.50999999999999" y="1730" width="109.99" height="40" as="geometry" />
        </mxCell>
        <mxCell id="dj7vZ8H88N9FHxcjNUMn-22" style="edgeStyle=orthogonalEdgeStyle;shape=connector;rounded=0;orthogonalLoop=1;jettySize=auto;html=1;labelBackgroundColor=default;strokeColor=default;fontFamily=Helvetica;fontSize=12;fontColor=default;endArrow=classic;" parent="WIyWlLk6GJQsqaUBKTNV-1" source="dj7vZ8H88N9FHxcjNUMn-21" target="dj7vZ8H88N9FHxcjNUMn-31" edge="1">
          <mxGeometry relative="1" as="geometry">
            <mxPoint x="-30" y="1950" as="targetPoint" />
            <Array as="points">
              <mxPoint x="80" y="1958" />
            </Array>
          </mxGeometry>
        </mxCell>
        <mxCell id="dj7vZ8H88N9FHxcjNUMn-21" value="&lt;font style=&quot;font-size: 11px;&quot;&gt;Find Lost Earring&lt;/font&gt;" style="rounded=0;whiteSpace=wrap;html=1;strokeColor=default;fontFamily=Helvetica;fontSize=12;fontColor=default;fillColor=default;" parent="WIyWlLk6GJQsqaUBKTNV-1" vertex="1">
          <mxGeometry x="57.50999999999999" y="1790" width="110" height="40" as="geometry" />
        </mxCell>
        <mxCell id="dj7vZ8H88N9FHxcjNUMn-25" style="edgeStyle=none;shape=connector;rounded=0;orthogonalLoop=1;jettySize=auto;html=1;labelBackgroundColor=default;strokeColor=default;fontFamily=Helvetica;fontSize=12;fontColor=default;endArrow=classic;" parent="WIyWlLk6GJQsqaUBKTNV-1" source="dj7vZ8H88N9FHxcjNUMn-24" target="dj7vZ8H88N9FHxcjNUMn-19" edge="1">
          <mxGeometry relative="1" as="geometry">
            <mxPoint x="112.50500000000002" y="1880" as="targetPoint" />
          </mxGeometry>
        </mxCell>
        <mxCell id="dj7vZ8H88N9FHxcjNUMn-24" value="&lt;font style=&quot;font-size: 11px;&quot;&gt;Dialogue&lt;/font&gt;" style="ellipse;whiteSpace=wrap;html=1;rounded=0;strokeColor=default;fontFamily=Helvetica;fontSize=12;fontColor=default;fillColor=default;" parent="WIyWlLk6GJQsqaUBKTNV-1" vertex="1">
          <mxGeometry x="76.53" y="1676" width="69.97" height="30" as="geometry" />
        </mxCell>
        <mxCell id="dj7vZ8H88N9FHxcjNUMn-27" style="edgeStyle=orthogonalEdgeStyle;shape=connector;rounded=0;orthogonalLoop=1;jettySize=auto;html=1;labelBackgroundColor=default;strokeColor=default;fontFamily=Helvetica;fontSize=12;fontColor=default;endArrow=classic;" parent="WIyWlLk6GJQsqaUBKTNV-1" source="dj7vZ8H88N9FHxcjNUMn-26" target="dj7vZ8H88N9FHxcjNUMn-31" edge="1">
          <mxGeometry relative="1" as="geometry">
            <mxPoint x="91.58000000000001" y="1957.4499999999998" as="targetPoint" />
            <mxPoint x="114.01244377839757" y="1896.0025562216028" as="sourcePoint" />
            <Array as="points">
              <mxPoint x="112.52000000000001" y="1950" />
            </Array>
          </mxGeometry>
        </mxCell>
        <mxCell id="dj7vZ8H88N9FHxcjNUMn-28" style="edgeStyle=orthogonalEdgeStyle;shape=connector;rounded=0;orthogonalLoop=1;jettySize=auto;html=1;labelBackgroundColor=default;strokeColor=default;fontFamily=Helvetica;fontSize=12;fontColor=default;endArrow=classic;" parent="WIyWlLk6GJQsqaUBKTNV-1" source="dj7vZ8H88N9FHxcjNUMn-26" target="dj7vZ8H88N9FHxcjNUMn-32" edge="1">
          <mxGeometry relative="1" as="geometry">
            <mxPoint x="143.3479411764707" y="2027.4500000000003" as="targetPoint" />
            <mxPoint x="109.89409416998623" y="1900.1209058300142" as="sourcePoint" />
            <Array as="points">
              <mxPoint x="112.75" y="2090" />
            </Array>
          </mxGeometry>
        </mxCell>
        <mxCell id="dj7vZ8H88N9FHxcjNUMn-29" style="edgeStyle=orthogonalEdgeStyle;shape=connector;rounded=0;orthogonalLoop=1;jettySize=auto;html=1;labelBackgroundColor=default;strokeColor=default;fontFamily=Helvetica;fontSize=12;fontColor=default;endArrow=classic;" parent="WIyWlLk6GJQsqaUBKTNV-1" source="dj7vZ8H88N9FHxcjNUMn-26" target="dj7vZ8H88N9FHxcjNUMn-33" edge="1">
          <mxGeometry relative="1" as="geometry">
            <mxPoint x="387.52" y="1950" as="targetPoint" />
            <Array as="points">
              <mxPoint x="112.75" y="2180" />
            </Array>
          </mxGeometry>
        </mxCell>
        <mxCell id="dj7vZ8H88N9FHxcjNUMn-30" style="edgeStyle=orthogonalEdgeStyle;shape=connector;rounded=0;orthogonalLoop=1;jettySize=auto;html=1;labelBackgroundColor=default;strokeColor=default;fontFamily=Helvetica;fontSize=12;fontColor=default;endArrow=classic;" parent="WIyWlLk6GJQsqaUBKTNV-1" source="dj7vZ8H88N9FHxcjNUMn-26" target="dj7vZ8H88N9FHxcjNUMn-35" edge="1">
          <mxGeometry relative="1" as="geometry">
            <mxPoint x="567.52" y="1950" as="targetPoint" />
            <Array as="points">
              <mxPoint x="113" y="2330" />
            </Array>
          </mxGeometry>
        </mxCell>
        <mxCell id="dj7vZ8H88N9FHxcjNUMn-55" style="edgeStyle=orthogonalEdgeStyle;shape=connector;rounded=0;orthogonalLoop=1;jettySize=auto;html=1;labelBackgroundColor=default;strokeColor=default;fontFamily=Helvetica;fontSize=12;fontColor=default;endArrow=classic;" parent="WIyWlLk6GJQsqaUBKTNV-1" source="dj7vZ8H88N9FHxcjNUMn-26" target="dj7vZ8H88N9FHxcjNUMn-56" edge="1">
          <mxGeometry relative="1" as="geometry">
            <mxPoint x="787.52" y="1970" as="targetPoint" />
            <Array as="points">
              <mxPoint x="113" y="2460" />
            </Array>
          </mxGeometry>
        </mxCell>
        <mxCell id="dj7vZ8H88N9FHxcjNUMn-26" value="" style="rhombus;whiteSpace=wrap;html=1;rounded=0;shadow=0;glass=0;comic=1;strokeColor=#000000;align=left;fontFamily=Helvetica;fontSize=12;fontColor=default;fillColor=default;" parent="WIyWlLk6GJQsqaUBKTNV-1" vertex="1">
          <mxGeometry x="96.50500000000002" y="1864" width="32" height="32" as="geometry" />
        </mxCell>
        <mxCell id="dj7vZ8H88N9FHxcjNUMn-39" style="edgeStyle=none;shape=connector;rounded=0;orthogonalLoop=1;jettySize=auto;html=1;labelBackgroundColor=default;strokeColor=default;fontFamily=Helvetica;fontSize=12;fontColor=default;endArrow=classic;" parent="WIyWlLk6GJQsqaUBKTNV-1" source="dj7vZ8H88N9FHxcjNUMn-31" target="dj7vZ8H88N9FHxcjNUMn-40" edge="1">
          <mxGeometry relative="1" as="geometry">
            <mxPoint x="201.58" y="2047.4499999999998" as="targetPoint" />
          </mxGeometry>
        </mxCell>
        <mxCell id="dj7vZ8H88N9FHxcjNUMn-31" value="Sacred Tree&lt;br&gt;Amaya Interrogation" style="rounded=1;whiteSpace=wrap;html=1;strokeColor=default;fontFamily=Helvetica;fontSize=12;fontColor=default;fillColor=default;" parent="WIyWlLk6GJQsqaUBKTNV-1" vertex="1">
          <mxGeometry x="141.58" y="1927.4499999999998" width="120" height="60" as="geometry" />
        </mxCell>
        <mxCell id="dj7vZ8H88N9FHxcjNUMn-49" style="edgeStyle=none;shape=connector;rounded=0;orthogonalLoop=1;jettySize=auto;html=1;labelBackgroundColor=default;strokeColor=default;fontFamily=Helvetica;fontSize=12;fontColor=default;endArrow=classic;" parent="WIyWlLk6GJQsqaUBKTNV-1" source="dj7vZ8H88N9FHxcjNUMn-32" target="dj7vZ8H88N9FHxcjNUMn-50" edge="1">
          <mxGeometry relative="1" as="geometry">
            <mxPoint x="195.9400000000002" y="2181" as="targetPoint" />
          </mxGeometry>
        </mxCell>
        <mxCell id="dj7vZ8H88N9FHxcjNUMn-32" value="Temple&lt;br&gt;Kohana Interrogation" style="rounded=1;whiteSpace=wrap;html=1;strokeColor=default;fontFamily=Helvetica;fontSize=12;fontColor=default;fillColor=default;" parent="WIyWlLk6GJQsqaUBKTNV-1" vertex="1">
          <mxGeometry x="141.57999999999998" y="2060" width="120" height="60" as="geometry" />
        </mxCell>
        <mxCell id="dj7vZ8H88N9FHxcjNUMn-68" style="edgeStyle=none;shape=connector;rounded=0;orthogonalLoop=1;jettySize=auto;html=1;labelBackgroundColor=default;strokeColor=default;fontFamily=Helvetica;fontSize=12;fontColor=default;endArrow=classic;" parent="WIyWlLk6GJQsqaUBKTNV-1" source="dj7vZ8H88N9FHxcjNUMn-33" target="dj7vZ8H88N9FHxcjNUMn-69" edge="1">
          <mxGeometry relative="1" as="geometry">
            <mxPoint x="307.51999999999975" y="2190" as="targetPoint" />
          </mxGeometry>
        </mxCell>
        <mxCell id="dj7vZ8H88N9FHxcjNUMn-33" value="Nobu&#39;s Home&lt;br&gt;Nobu Interrogation" style="rounded=1;whiteSpace=wrap;html=1;strokeColor=default;fontFamily=Helvetica;fontSize=12;fontColor=default;fillColor=default;" parent="WIyWlLk6GJQsqaUBKTNV-1" vertex="1">
          <mxGeometry x="141.58" y="2160" width="120" height="60" as="geometry" />
        </mxCell>
        <mxCell id="dj7vZ8H88N9FHxcjNUMn-80" style="edgeStyle=none;shape=connector;rounded=0;orthogonalLoop=1;jettySize=auto;html=1;labelBackgroundColor=default;strokeColor=default;fontFamily=Helvetica;fontSize=12;fontColor=default;endArrow=classic;" parent="WIyWlLk6GJQsqaUBKTNV-1" source="dj7vZ8H88N9FHxcjNUMn-35" target="dj7vZ8H88N9FHxcjNUMn-76" edge="1">
          <mxGeometry relative="1" as="geometry" />
        </mxCell>
        <mxCell id="dj7vZ8H88N9FHxcjNUMn-35" value="Sakura Glade Square&lt;br&gt;Fumiko Interrogation" style="rounded=1;whiteSpace=wrap;html=1;strokeColor=default;fontFamily=Helvetica;fontSize=12;fontColor=default;fillColor=default;" parent="WIyWlLk6GJQsqaUBKTNV-1" vertex="1">
          <mxGeometry x="141.58" y="2300" width="120" height="60" as="geometry" />
        </mxCell>
        <mxCell id="Tx0HjF_n2Jl848Rfjk3a-23" style="edgeStyle=none;shape=connector;rounded=0;orthogonalLoop=1;jettySize=auto;html=1;labelBackgroundColor=default;strokeColor=default;fontFamily=Helvetica;fontSize=11;fontColor=default;endArrow=classic;" parent="WIyWlLk6GJQsqaUBKTNV-1" source="dj7vZ8H88N9FHxcjNUMn-37" target="T1DTE1MOMbU-z8p3hKDX-21" edge="1">
          <mxGeometry relative="1" as="geometry">
            <mxPoint x="125" y="1099.9999999999998" as="targetPoint" />
          </mxGeometry>
        </mxCell>
        <mxCell id="dj7vZ8H88N9FHxcjNUMn-37" value="&lt;font style=&quot;font-size: 11px;&quot;&gt;Receive Replica of the Moon Bead&lt;/font&gt;" style="rounded=0;whiteSpace=wrap;html=1;strokeColor=default;fontFamily=Helvetica;fontSize=12;fontColor=default;fillColor=default;" parent="WIyWlLk6GJQsqaUBKTNV-1" vertex="1">
          <mxGeometry x="70" y="1045" width="110" height="50" as="geometry" />
        </mxCell>
        <mxCell id="dj7vZ8H88N9FHxcjNUMn-41" style="edgeStyle=none;shape=connector;rounded=0;orthogonalLoop=1;jettySize=auto;html=1;labelBackgroundColor=default;strokeColor=default;fontFamily=Helvetica;fontSize=12;fontColor=default;endArrow=classic;" parent="WIyWlLk6GJQsqaUBKTNV-1" source="dj7vZ8H88N9FHxcjNUMn-40" target="dj7vZ8H88N9FHxcjNUMn-42" edge="1">
          <mxGeometry relative="1" as="geometry">
            <mxPoint x="346.58" y="2038.4499999999998" as="targetPoint" />
          </mxGeometry>
        </mxCell>
        <mxCell id="dj7vZ8H88N9FHxcjNUMn-40" value="&lt;font style=&quot;font-size: 11px;&quot;&gt;Dialogue&lt;/font&gt;" style="ellipse;whiteSpace=wrap;html=1;rounded=0;strokeColor=default;fontFamily=Helvetica;fontSize=12;fontColor=default;fillColor=default;" parent="WIyWlLk6GJQsqaUBKTNV-1" vertex="1">
          <mxGeometry x="291.25" y="1942.4499999999998" width="66.25" height="30" as="geometry" />
        </mxCell>
        <mxCell id="dj7vZ8H88N9FHxcjNUMn-43" value="&lt;font style=&quot;font-size: 11px;&quot;&gt;present Black Ooze&lt;/font&gt;" style="edgeStyle=none;shape=connector;rounded=0;orthogonalLoop=1;jettySize=auto;html=1;labelBackgroundColor=default;strokeColor=default;fontFamily=Helvetica;fontSize=12;fontColor=default;endArrow=classic;" parent="WIyWlLk6GJQsqaUBKTNV-1" source="dj7vZ8H88N9FHxcjNUMn-42" target="dj7vZ8H88N9FHxcjNUMn-44" edge="1">
          <mxGeometry relative="1" as="geometry">
            <mxPoint x="470.30999999999995" y="1998.4499999999998" as="targetPoint" />
          </mxGeometry>
        </mxCell>
        <mxCell id="dj7vZ8H88N9FHxcjNUMn-45" value="&lt;font style=&quot;font-size: 11px;&quot;&gt;present updated&lt;br&gt;Medical Note&lt;br&gt;(with at least 15 Points)&lt;br&gt;&lt;/font&gt;" style="edgeStyle=none;shape=connector;rounded=0;orthogonalLoop=1;jettySize=auto;html=1;labelBackgroundColor=default;strokeColor=default;fontFamily=Helvetica;fontSize=12;fontColor=default;endArrow=classic;" parent="WIyWlLk6GJQsqaUBKTNV-1" source="dj7vZ8H88N9FHxcjNUMn-42" target="dj7vZ8H88N9FHxcjNUMn-48" edge="1">
          <mxGeometry x="-0.0001" relative="1" as="geometry">
            <mxPoint x="511.229789318701" y="1923.3355746915458" as="targetPoint" />
            <mxPoint as="offset" />
          </mxGeometry>
        </mxCell>
        <mxCell id="Tx0HjF_n2Jl848Rfjk3a-6" style="rounded=0;orthogonalLoop=1;jettySize=auto;html=1;" parent="WIyWlLk6GJQsqaUBKTNV-1" source="dj7vZ8H88N9FHxcjNUMn-42" target="Tx0HjF_n2Jl848Rfjk3a-7" edge="1">
          <mxGeometry relative="1" as="geometry">
            <mxPoint x="543.75" y="2060" as="targetPoint" />
          </mxGeometry>
        </mxCell>
        <mxCell id="Tx0HjF_n2Jl848Rfjk3a-8" value="present updated Earrings" style="edgeLabel;html=1;align=center;verticalAlign=middle;resizable=0;points=[];" parent="Tx0HjF_n2Jl848Rfjk3a-6" vertex="1" connectable="0">
          <mxGeometry x="0.2628" y="2" relative="1" as="geometry">
            <mxPoint as="offset" />
          </mxGeometry>
        </mxCell>
        <mxCell id="wCaUfHLs_jQNqA13D1QE-0" style="edgeStyle=orthogonalEdgeStyle;rounded=0;orthogonalLoop=1;jettySize=auto;html=1;" edge="1" parent="WIyWlLk6GJQsqaUBKTNV-1" source="dj7vZ8H88N9FHxcjNUMn-42" target="wCaUfHLs_jQNqA13D1QE-3">
          <mxGeometry relative="1" as="geometry">
            <mxPoint x="979.8621026400859" y="2070" as="targetPoint" />
          </mxGeometry>
        </mxCell>
        <mxCell id="wCaUfHLs_jQNqA13D1QE-4" value="present replica" style="edgeLabel;html=1;align=center;verticalAlign=middle;resizable=0;points=[];" vertex="1" connectable="0" parent="wCaUfHLs_jQNqA13D1QE-0">
          <mxGeometry x="0.5583" y="-1" relative="1" as="geometry">
            <mxPoint as="offset" />
          </mxGeometry>
        </mxCell>
        <mxCell id="dj7vZ8H88N9FHxcjNUMn-42" value="" style="rhombus;whiteSpace=wrap;html=1;rounded=0;shadow=0;glass=0;comic=1;strokeColor=#000000;align=left;fontFamily=Helvetica;fontSize=12;fontColor=default;fillColor=default;" parent="WIyWlLk6GJQsqaUBKTNV-1" vertex="1">
          <mxGeometry x="383.75" y="1941.4499999999998" width="32" height="32" as="geometry" />
        </mxCell>
        <mxCell id="dj7vZ8H88N9FHxcjNUMn-44" value="&lt;font style=&quot;font-size: 11px;&quot;&gt;update Black Ooze description&lt;/font&gt;" style="rounded=0;whiteSpace=wrap;html=1;strokeColor=default;fontFamily=Helvetica;fontSize=12;fontColor=default;fillColor=default;" parent="WIyWlLk6GJQsqaUBKTNV-1" vertex="1">
          <mxGeometry x="581.25" y="1896" width="102.5" height="37.55" as="geometry" />
        </mxCell>
        <mxCell id="Tx0HjF_n2Jl848Rfjk3a-48" style="edgeStyle=none;shape=connector;rounded=0;orthogonalLoop=1;jettySize=auto;html=1;labelBackgroundColor=default;strokeColor=default;fontFamily=Helvetica;fontSize=11;fontColor=default;endArrow=classic;" parent="WIyWlLk6GJQsqaUBKTNV-1" source="dj7vZ8H88N9FHxcjNUMn-46" target="Tx0HjF_n2Jl848Rfjk3a-49" edge="1">
          <mxGeometry relative="1" as="geometry">
            <mxPoint x="210" y="2760" as="targetPoint" />
          </mxGeometry>
        </mxCell>
        <mxCell id="dj7vZ8H88N9FHxcjNUMn-46" value="Fumiko" style="rounded=1;whiteSpace=wrap;html=1;strokeColor=default;fontFamily=Helvetica;fontSize=12;fontColor=default;fillColor=default;" parent="WIyWlLk6GJQsqaUBKTNV-1" vertex="1">
          <mxGeometry x="141.74999999999997" y="2650" width="120" height="60" as="geometry" />
        </mxCell>
        <mxCell id="Tx0HjF_n2Jl848Rfjk3a-12" style="rounded=0;orthogonalLoop=1;jettySize=auto;html=1;" parent="WIyWlLk6GJQsqaUBKTNV-1" source="dj7vZ8H88N9FHxcjNUMn-48" target="Tx0HjF_n2Jl848Rfjk3a-13" edge="1">
          <mxGeometry relative="1" as="geometry">
            <mxPoint x="689.98" y="1980" as="targetPoint" />
          </mxGeometry>
        </mxCell>
        <mxCell id="dj7vZ8H88N9FHxcjNUMn-48" value="&lt;font style=&quot;font-size: 11px;&quot;&gt;Dialogue&lt;/font&gt;" style="ellipse;whiteSpace=wrap;html=1;rounded=0;strokeColor=default;fontFamily=Helvetica;fontSize=12;fontColor=default;fillColor=default;" parent="WIyWlLk6GJQsqaUBKTNV-1" vertex="1">
          <mxGeometry x="597.4999999999998" y="1957.4499999999998" width="70" height="30" as="geometry" />
        </mxCell>
        <mxCell id="dj7vZ8H88N9FHxcjNUMn-60" value="&lt;font style=&quot;font-size: 11px;&quot;&gt;present Replica&lt;/font&gt;" style="edgeStyle=none;shape=connector;rounded=0;orthogonalLoop=1;jettySize=auto;html=1;labelBackgroundColor=default;strokeColor=default;fontFamily=Helvetica;fontSize=12;fontColor=default;endArrow=classic;" parent="WIyWlLk6GJQsqaUBKTNV-1" source="dj7vZ8H88N9FHxcjNUMn-62" target="dj7vZ8H88N9FHxcjNUMn-61" edge="1">
          <mxGeometry relative="1" as="geometry">
            <mxPoint x="387.52" y="2090" as="targetPoint" />
            <mxPoint x="437.52" y="2120" as="sourcePoint" />
          </mxGeometry>
        </mxCell>
        <mxCell id="dj7vZ8H88N9FHxcjNUMn-63" value="" style="edgeStyle=none;shape=connector;rounded=0;orthogonalLoop=1;jettySize=auto;html=1;labelBackgroundColor=default;strokeColor=default;fontFamily=Helvetica;fontSize=12;fontColor=default;endArrow=classic;" parent="WIyWlLk6GJQsqaUBKTNV-1" source="dj7vZ8H88N9FHxcjNUMn-50" target="dj7vZ8H88N9FHxcjNUMn-62" edge="1">
          <mxGeometry relative="1" as="geometry" />
        </mxCell>
        <mxCell id="dj7vZ8H88N9FHxcjNUMn-50" value="&lt;font style=&quot;font-size: 11px;&quot;&gt;Dialogue&lt;/font&gt;" style="ellipse;whiteSpace=wrap;html=1;rounded=0;strokeColor=default;fontFamily=Helvetica;fontSize=12;fontColor=default;fillColor=default;" parent="WIyWlLk6GJQsqaUBKTNV-1" vertex="1">
          <mxGeometry x="306.13" y="2075" width="64.28" height="30" as="geometry" />
        </mxCell>
        <mxCell id="dj7vZ8H88N9FHxcjNUMn-51" value="&lt;font style=&quot;font-size: 11px;&quot;&gt;player can choose freely where to go and present items in any order, all paths go back here except Inn&lt;br&gt;&lt;/font&gt;" style="shape=note;strokeWidth=1;fontSize=14;size=11;whiteSpace=wrap;html=1;rounded=0;shadow=0;comic=1;fillColor=#FFFFFF;strokeColor=default;fontFamily=Helvetica;fontColor=default;" parent="WIyWlLk6GJQsqaUBKTNV-1" vertex="1">
          <mxGeometry x="197.52" y="1790" width="140" height="74" as="geometry" />
        </mxCell>
        <mxCell id="dj7vZ8H88N9FHxcjNUMn-52" value="" style="endArrow=none;dashed=1;html=1;rounded=0;labelBackgroundColor=default;strokeColor=default;fontFamily=Helvetica;fontSize=12;fontColor=default;shape=connector;" parent="WIyWlLk6GJQsqaUBKTNV-1" source="dj7vZ8H88N9FHxcjNUMn-26" target="dj7vZ8H88N9FHxcjNUMn-51" edge="1">
          <mxGeometry width="50" height="50" relative="1" as="geometry">
            <mxPoint x="240.64000000000001" y="1830" as="sourcePoint" />
            <mxPoint x="130.64000000000001" y="1850" as="targetPoint" />
          </mxGeometry>
        </mxCell>
        <mxCell id="dj7vZ8H88N9FHxcjNUMn-64" style="edgeStyle=none;shape=connector;rounded=0;orthogonalLoop=1;jettySize=auto;html=1;labelBackgroundColor=default;strokeColor=default;fontFamily=Helvetica;fontSize=12;fontColor=default;endArrow=classic;" parent="WIyWlLk6GJQsqaUBKTNV-1" source="dj7vZ8H88N9FHxcjNUMn-56" target="Tx0HjF_n2Jl848Rfjk3a-41" edge="1">
          <mxGeometry relative="1" as="geometry">
            <mxPoint x="197.96368421052625" y="2680" as="targetPoint" />
          </mxGeometry>
        </mxCell>
        <mxCell id="dj7vZ8H88N9FHxcjNUMn-56" value="Inn" style="rounded=1;whiteSpace=wrap;html=1;strokeColor=default;fontFamily=Helvetica;fontSize=12;fontColor=default;fillColor=default;" parent="WIyWlLk6GJQsqaUBKTNV-1" vertex="1">
          <mxGeometry x="141.58" y="2430" width="120" height="60" as="geometry" />
        </mxCell>
        <mxCell id="dj7vZ8H88N9FHxcjNUMn-57" value="&lt;font style=&quot;font-size: 11px;&quot;&gt;becomes accessible after talking to each character at least once and updating all 4 item descriptions&lt;/font&gt;" style="shape=note;strokeWidth=1;fontSize=14;size=11;whiteSpace=wrap;html=1;rounded=0;shadow=0;comic=1;fillColor=#FFFFFF;strokeColor=default;fontFamily=Helvetica;fontColor=default;" parent="WIyWlLk6GJQsqaUBKTNV-1" vertex="1">
          <mxGeometry x="274.75" y="2410" width="155.99" height="80" as="geometry" />
        </mxCell>
        <mxCell id="dj7vZ8H88N9FHxcjNUMn-58" value="" style="endArrow=none;dashed=1;html=1;rounded=0;labelBackgroundColor=default;strokeColor=default;fontFamily=Helvetica;fontSize=12;fontColor=default;shape=connector;" parent="WIyWlLk6GJQsqaUBKTNV-1" source="dj7vZ8H88N9FHxcjNUMn-56" target="dj7vZ8H88N9FHxcjNUMn-57" edge="1">
          <mxGeometry width="50" height="50" relative="1" as="geometry">
            <mxPoint x="220.33" y="2490.0042857142857" as="sourcePoint" />
            <mxPoint x="130.33" y="2502.29" as="targetPoint" />
          </mxGeometry>
        </mxCell>
        <mxCell id="dj7vZ8H88N9FHxcjNUMn-61" value="&lt;font style=&quot;font-size: 11px;&quot;&gt;update Replica description&lt;/font&gt;" style="rounded=0;whiteSpace=wrap;html=1;strokeColor=default;fontFamily=Helvetica;fontSize=12;fontColor=default;fillColor=default;" parent="WIyWlLk6GJQsqaUBKTNV-1" vertex="1">
          <mxGeometry x="595.02" y="2070" width="90" height="40" as="geometry" />
        </mxCell>
        <mxCell id="dj7vZ8H88N9FHxcjNUMn-62" value="" style="rhombus;whiteSpace=wrap;html=1;rounded=0;" parent="WIyWlLk6GJQsqaUBKTNV-1" vertex="1">
          <mxGeometry x="407.52" y="2075" width="29.52" height="30" as="geometry" />
        </mxCell>
        <mxCell id="dj7vZ8H88N9FHxcjNUMn-74" style="edgeStyle=none;shape=connector;rounded=0;orthogonalLoop=1;jettySize=auto;html=1;entryX=0;entryY=0.5;entryDx=0;entryDy=0;labelBackgroundColor=default;strokeColor=default;fontFamily=Helvetica;fontSize=12;fontColor=default;endArrow=classic;" parent="WIyWlLk6GJQsqaUBKTNV-1" source="dj7vZ8H88N9FHxcjNUMn-69" target="dj7vZ8H88N9FHxcjNUMn-72" edge="1">
          <mxGeometry relative="1" as="geometry" />
        </mxCell>
        <mxCell id="dj7vZ8H88N9FHxcjNUMn-69" value="&lt;font style=&quot;font-size: 11px;&quot;&gt;Dialogue&lt;/font&gt;" style="ellipse;whiteSpace=wrap;html=1;rounded=0;strokeColor=default;fontFamily=Helvetica;fontSize=12;fontColor=default;fillColor=default;" parent="WIyWlLk6GJQsqaUBKTNV-1" vertex="1">
          <mxGeometry x="304.26" y="2175" width="70" height="30" as="geometry" />
        </mxCell>
        <mxCell id="dj7vZ8H88N9FHxcjNUMn-70" value="&lt;font style=&quot;font-size: 11px;&quot;&gt;present Medical Notice&lt;/font&gt;" style="edgeStyle=none;shape=connector;rounded=0;orthogonalLoop=1;jettySize=auto;html=1;labelBackgroundColor=default;strokeColor=default;fontFamily=Helvetica;fontSize=12;fontColor=default;endArrow=classic;" parent="WIyWlLk6GJQsqaUBKTNV-1" source="dj7vZ8H88N9FHxcjNUMn-72" target="dj7vZ8H88N9FHxcjNUMn-71" edge="1">
          <mxGeometry relative="1" as="geometry">
            <mxPoint x="597.52" y="2186.1099271887765" as="targetPoint" />
            <mxPoint x="437.52" y="2220" as="sourcePoint" />
          </mxGeometry>
        </mxCell>
        <mxCell id="dj7vZ8H88N9FHxcjNUMn-71" value="&lt;font style=&quot;font-size: 11px;&quot;&gt;update Medical Notice description&lt;/font&gt;" style="rounded=0;whiteSpace=wrap;html=1;strokeColor=default;fontFamily=Helvetica;fontSize=12;fontColor=default;fillColor=default;" parent="WIyWlLk6GJQsqaUBKTNV-1" vertex="1">
          <mxGeometry x="590.02" y="2140" width="100" height="40" as="geometry" />
        </mxCell>
        <mxCell id="Tx0HjF_n2Jl848Rfjk3a-25" value="present updated Black Ooze&lt;br&gt;(with at least 15 Points)" style="edgeStyle=none;shape=connector;rounded=0;orthogonalLoop=1;jettySize=auto;html=1;labelBackgroundColor=default;strokeColor=default;fontFamily=Helvetica;fontSize=11;fontColor=default;endArrow=classic;" parent="WIyWlLk6GJQsqaUBKTNV-1" source="dj7vZ8H88N9FHxcjNUMn-72" target="Tx0HjF_n2Jl848Rfjk3a-27" edge="1">
          <mxGeometry x="-0.0035" relative="1" as="geometry">
            <mxPoint x="643.75" y="2220" as="targetPoint" />
            <mxPoint as="offset" />
          </mxGeometry>
        </mxCell>
        <mxCell id="dj7vZ8H88N9FHxcjNUMn-72" value="" style="rhombus;whiteSpace=wrap;html=1;rounded=0;" parent="WIyWlLk6GJQsqaUBKTNV-1" vertex="1">
          <mxGeometry x="407.52" y="2175" width="29.52" height="30" as="geometry" />
        </mxCell>
        <mxCell id="dj7vZ8H88N9FHxcjNUMn-75" style="edgeStyle=none;shape=connector;rounded=0;orthogonalLoop=1;jettySize=auto;html=1;entryX=0;entryY=0.5;entryDx=0;entryDy=0;labelBackgroundColor=default;strokeColor=default;fontFamily=Helvetica;fontSize=12;fontColor=default;endArrow=classic;" parent="WIyWlLk6GJQsqaUBKTNV-1" source="dj7vZ8H88N9FHxcjNUMn-76" target="dj7vZ8H88N9FHxcjNUMn-79" edge="1">
          <mxGeometry relative="1" as="geometry" />
        </mxCell>
        <mxCell id="dj7vZ8H88N9FHxcjNUMn-76" value="&lt;font style=&quot;font-size: 11px;&quot;&gt;Dialogue&lt;/font&gt;" style="ellipse;whiteSpace=wrap;html=1;rounded=0;strokeColor=default;fontFamily=Helvetica;fontSize=12;fontColor=default;fillColor=default;" parent="WIyWlLk6GJQsqaUBKTNV-1" vertex="1">
          <mxGeometry x="290.5" y="2315" width="70" height="30" as="geometry" />
        </mxCell>
        <mxCell id="dj7vZ8H88N9FHxcjNUMn-77" value="&lt;font style=&quot;font-size: 11px;&quot;&gt;present Earrings&lt;/font&gt;" style="edgeStyle=none;shape=connector;rounded=0;orthogonalLoop=1;jettySize=auto;html=1;labelBackgroundColor=default;strokeColor=default;fontFamily=Helvetica;fontSize=12;fontColor=default;endArrow=classic;" parent="WIyWlLk6GJQsqaUBKTNV-1" source="dj7vZ8H88N9FHxcjNUMn-79" target="dj7vZ8H88N9FHxcjNUMn-78" edge="1">
          <mxGeometry relative="1" as="geometry">
            <mxPoint x="597.52" y="2276.1099271887765" as="targetPoint" />
            <mxPoint x="437.52" y="2310" as="sourcePoint" />
          </mxGeometry>
        </mxCell>
        <mxCell id="dj7vZ8H88N9FHxcjNUMn-78" value="&lt;font style=&quot;font-size: 11px;&quot;&gt;update Earrings description&lt;/font&gt;" style="rounded=0;whiteSpace=wrap;html=1;strokeColor=default;fontFamily=Helvetica;fontSize=12;fontColor=default;fillColor=default;" parent="WIyWlLk6GJQsqaUBKTNV-1" vertex="1">
          <mxGeometry x="595.02" y="2260" width="100" height="40" as="geometry" />
        </mxCell>
        <mxCell id="Tx0HjF_n2Jl848Rfjk3a-29" value="present updated Earrings&lt;br&gt;( with at least 20 Points)" style="edgeStyle=none;shape=connector;rounded=0;orthogonalLoop=1;jettySize=auto;html=1;labelBackgroundColor=default;strokeColor=default;fontFamily=Helvetica;fontSize=11;fontColor=default;endArrow=classic;" parent="WIyWlLk6GJQsqaUBKTNV-1" source="dj7vZ8H88N9FHxcjNUMn-79" target="Tx0HjF_n2Jl848Rfjk3a-30" edge="1">
          <mxGeometry relative="1" as="geometry">
            <mxPoint x="473.75" y="2329.9999999999995" as="targetPoint" />
          </mxGeometry>
        </mxCell>
        <mxCell id="Tx0HjF_n2Jl848Rfjk3a-33" value="present updated Replica" style="edgeStyle=none;shape=connector;rounded=0;orthogonalLoop=1;jettySize=auto;html=1;labelBackgroundColor=default;strokeColor=default;fontFamily=Helvetica;fontSize=11;fontColor=default;endArrow=classic;" parent="WIyWlLk6GJQsqaUBKTNV-1" source="dj7vZ8H88N9FHxcjNUMn-79" target="Tx0HjF_n2Jl848Rfjk3a-43" edge="1">
          <mxGeometry relative="1" as="geometry">
            <mxPoint x="503.7499999999998" y="2400" as="targetPoint" />
          </mxGeometry>
        </mxCell>
        <mxCell id="dj7vZ8H88N9FHxcjNUMn-79" value="" style="rhombus;whiteSpace=wrap;html=1;rounded=0;" parent="WIyWlLk6GJQsqaUBKTNV-1" vertex="1">
          <mxGeometry x="383.75" y="2315" width="29.52" height="30" as="geometry" />
        </mxCell>
        <mxCell id="Tx0HjF_n2Jl848Rfjk3a-1" style="edgeStyle=orthogonalEdgeStyle;rounded=0;orthogonalLoop=1;jettySize=auto;html=1;exitX=0.1;exitY=0.5;exitDx=0;exitDy=0;exitPerimeter=0;" parent="WIyWlLk6GJQsqaUBKTNV-1" source="Tx0HjF_n2Jl848Rfjk3a-0" target="dj7vZ8H88N9FHxcjNUMn-26" edge="1">
          <mxGeometry relative="1" as="geometry">
            <Array as="points">
              <mxPoint x="804" y="2160" />
              <mxPoint x="804" y="1880" />
            </Array>
          </mxGeometry>
        </mxCell>
        <mxCell id="Tx0HjF_n2Jl848Rfjk3a-0" value="" style="shape=curlyBracket;whiteSpace=wrap;html=1;rounded=1;flipH=1;labelPosition=right;verticalLabelPosition=middle;align=left;verticalAlign=middle;" parent="WIyWlLk6GJQsqaUBKTNV-1" vertex="1">
          <mxGeometry x="773.75" y="1900" width="20" height="520" as="geometry" />
        </mxCell>
        <mxCell id="Tx0HjF_n2Jl848Rfjk3a-14" style="edgeStyle=none;shape=connector;rounded=0;orthogonalLoop=1;jettySize=auto;html=1;labelBackgroundColor=default;strokeColor=default;fontFamily=Helvetica;fontSize=11;fontColor=default;endArrow=classic;" parent="WIyWlLk6GJQsqaUBKTNV-1" source="Tx0HjF_n2Jl848Rfjk3a-7" target="Tx0HjF_n2Jl848Rfjk3a-15" edge="1">
          <mxGeometry relative="1" as="geometry">
            <mxPoint x="689.98" y="2025" as="targetPoint" />
          </mxGeometry>
        </mxCell>
        <mxCell id="Tx0HjF_n2Jl848Rfjk3a-7" value="&lt;font style=&quot;font-size: 11px;&quot;&gt;Dialogue&lt;/font&gt;" style="ellipse;whiteSpace=wrap;html=1;" parent="WIyWlLk6GJQsqaUBKTNV-1" vertex="1">
          <mxGeometry x="597.5" y="2010" width="70" height="30" as="geometry" />
        </mxCell>
        <mxCell id="Tx0HjF_n2Jl848Rfjk3a-13" value="Points +5" style="rounded=0;whiteSpace=wrap;html=1;fontFamily=Helvetica;fontSize=11;fontColor=default;" parent="WIyWlLk6GJQsqaUBKTNV-1" vertex="1">
          <mxGeometry x="689.98" y="1957.4499999999998" width="60" height="30" as="geometry" />
        </mxCell>
        <mxCell id="Tx0HjF_n2Jl848Rfjk3a-15" value="Points +5" style="rounded=0;whiteSpace=wrap;html=1;fontFamily=Helvetica;fontSize=11;fontColor=default;" parent="WIyWlLk6GJQsqaUBKTNV-1" vertex="1">
          <mxGeometry x="689.98" y="2010" width="60" height="30" as="geometry" />
        </mxCell>
        <mxCell id="Tx0HjF_n2Jl848Rfjk3a-26" value="Points +5" style="rounded=0;whiteSpace=wrap;html=1;fontFamily=Helvetica;fontSize=11;fontColor=default;" parent="WIyWlLk6GJQsqaUBKTNV-1" vertex="1">
          <mxGeometry x="695.02" y="2205" width="63.73" height="30" as="geometry" />
        </mxCell>
        <mxCell id="Tx0HjF_n2Jl848Rfjk3a-28" style="edgeStyle=none;shape=connector;rounded=0;orthogonalLoop=1;jettySize=auto;html=1;labelBackgroundColor=default;strokeColor=default;fontFamily=Helvetica;fontSize=11;fontColor=default;endArrow=classic;" parent="WIyWlLk6GJQsqaUBKTNV-1" source="Tx0HjF_n2Jl848Rfjk3a-27" target="Tx0HjF_n2Jl848Rfjk3a-26" edge="1">
          <mxGeometry relative="1" as="geometry" />
        </mxCell>
        <mxCell id="Tx0HjF_n2Jl848Rfjk3a-27" value="Dialogue" style="ellipse;whiteSpace=wrap;html=1;fontFamily=Helvetica;fontSize=11;fontColor=default;" parent="WIyWlLk6GJQsqaUBKTNV-1" vertex="1">
          <mxGeometry x="605.02" y="2205" width="70" height="30" as="geometry" />
        </mxCell>
        <mxCell id="Tx0HjF_n2Jl848Rfjk3a-31" style="edgeStyle=none;shape=connector;rounded=0;orthogonalLoop=1;jettySize=auto;html=1;labelBackgroundColor=default;strokeColor=default;fontFamily=Helvetica;fontSize=11;fontColor=default;endArrow=classic;" parent="WIyWlLk6GJQsqaUBKTNV-1" source="Tx0HjF_n2Jl848Rfjk3a-30" target="Tx0HjF_n2Jl848Rfjk3a-32" edge="1">
          <mxGeometry relative="1" as="geometry">
            <mxPoint x="693.75" y="2359.9999999999995" as="targetPoint" />
          </mxGeometry>
        </mxCell>
        <mxCell id="Tx0HjF_n2Jl848Rfjk3a-30" value="Dialogue&lt;br&gt;about how everyone was somewhere else n stuf" style="ellipse;whiteSpace=wrap;html=1;fontFamily=Helvetica;fontSize=11;fontColor=default;" parent="WIyWlLk6GJQsqaUBKTNV-1" vertex="1">
          <mxGeometry x="597.5" y="2390" width="70" height="30" as="geometry" />
        </mxCell>
        <mxCell id="Tx0HjF_n2Jl848Rfjk3a-32" value="Points +5" style="rounded=0;whiteSpace=wrap;html=1;fontFamily=Helvetica;fontSize=11;fontColor=default;" parent="WIyWlLk6GJQsqaUBKTNV-1" vertex="1">
          <mxGeometry x="695.02" y="2390" width="63.73" height="30" as="geometry" />
        </mxCell>
        <mxCell id="Tx0HjF_n2Jl848Rfjk3a-42" value="if at least 15 Points" style="edgeStyle=none;shape=connector;rounded=0;orthogonalLoop=1;jettySize=auto;html=1;labelBackgroundColor=default;strokeColor=default;fontFamily=Helvetica;fontSize=11;fontColor=default;endArrow=classic;" parent="WIyWlLk6GJQsqaUBKTNV-1" source="Tx0HjF_n2Jl848Rfjk3a-41" target="dj7vZ8H88N9FHxcjNUMn-46" edge="1">
          <mxGeometry relative="1" as="geometry">
            <mxPoint x="200.32999999999993" y="2710" as="targetPoint" />
          </mxGeometry>
        </mxCell>
        <mxCell id="Tx0HjF_n2Jl848Rfjk3a-46" value="else" style="edgeStyle=orthogonalEdgeStyle;shape=connector;rounded=0;orthogonalLoop=1;jettySize=auto;html=1;labelBackgroundColor=default;strokeColor=default;fontFamily=Helvetica;fontSize=11;fontColor=default;endArrow=classic;" parent="WIyWlLk6GJQsqaUBKTNV-1" source="Tx0HjF_n2Jl848Rfjk3a-41" target="Tx0HjF_n2Jl848Rfjk3a-52" edge="1">
          <mxGeometry relative="1" as="geometry">
            <mxPoint x="63" y="2560" as="targetPoint" />
            <Array as="points">
              <mxPoint x="120" y="2559" />
            </Array>
          </mxGeometry>
        </mxCell>
        <mxCell id="Tx0HjF_n2Jl848Rfjk3a-41" value="" style="rhombus;whiteSpace=wrap;html=1;fontFamily=Helvetica;fontSize=11;fontColor=default;" parent="WIyWlLk6GJQsqaUBKTNV-1" vertex="1">
          <mxGeometry x="183.07" y="2540" width="37.02" height="37.02" as="geometry" />
        </mxCell>
        <mxCell id="Tx0HjF_n2Jl848Rfjk3a-45" style="edgeStyle=none;shape=connector;rounded=0;orthogonalLoop=1;jettySize=auto;html=1;labelBackgroundColor=default;strokeColor=default;fontFamily=Helvetica;fontSize=11;fontColor=default;endArrow=classic;" parent="WIyWlLk6GJQsqaUBKTNV-1" source="Tx0HjF_n2Jl848Rfjk3a-43" target="Tx0HjF_n2Jl848Rfjk3a-44" edge="1">
          <mxGeometry relative="1" as="geometry" />
        </mxCell>
        <mxCell id="Tx0HjF_n2Jl848Rfjk3a-43" value="Dialogue" style="ellipse;whiteSpace=wrap;html=1;rounded=1;shadow=0;strokeWidth=1;comic=1;fontFamily=Helvetica;fontSize=11;fontColor=default;" parent="WIyWlLk6GJQsqaUBKTNV-1" vertex="1">
          <mxGeometry x="597.5" y="2320" width="64.75" height="30" as="geometry" />
        </mxCell>
        <mxCell id="Tx0HjF_n2Jl848Rfjk3a-44" value="Points +5" style="rounded=0;whiteSpace=wrap;html=1;fontFamily=Helvetica;fontSize=11;fontColor=default;" parent="WIyWlLk6GJQsqaUBKTNV-1" vertex="1">
          <mxGeometry x="695.02" y="2320" width="63.73" height="30" as="geometry" />
        </mxCell>
        <mxCell id="Tx0HjF_n2Jl848Rfjk3a-50" value="forgive her" style="edgeStyle=orthogonalEdgeStyle;shape=connector;rounded=0;orthogonalLoop=1;jettySize=auto;html=1;labelBackgroundColor=default;strokeColor=default;fontFamily=Helvetica;fontSize=11;fontColor=default;endArrow=classic;" parent="WIyWlLk6GJQsqaUBKTNV-1" source="Tx0HjF_n2Jl848Rfjk3a-49" target="Tx0HjF_n2Jl848Rfjk3a-53" edge="1">
          <mxGeometry relative="1" as="geometry">
            <mxPoint x="480" y="2760" as="targetPoint" />
          </mxGeometry>
        </mxCell>
        <mxCell id="Tx0HjF_n2Jl848Rfjk3a-51" value="don&#39;t forgive" style="edgeStyle=none;shape=connector;rounded=0;orthogonalLoop=1;jettySize=auto;html=1;labelBackgroundColor=default;strokeColor=default;fontFamily=Helvetica;fontSize=11;fontColor=default;endArrow=classic;" parent="WIyWlLk6GJQsqaUBKTNV-1" source="Tx0HjF_n2Jl848Rfjk3a-49" target="Tx0HjF_n2Jl848Rfjk3a-52" edge="1">
          <mxGeometry relative="1" as="geometry">
            <mxPoint x="201.75" y="2860" as="targetPoint" />
          </mxGeometry>
        </mxCell>
        <mxCell id="Tx0HjF_n2Jl848Rfjk3a-49" value="" style="rhombus;whiteSpace=wrap;html=1;fontFamily=Helvetica;fontSize=11;fontColor=default;" parent="WIyWlLk6GJQsqaUBKTNV-1" vertex="1">
          <mxGeometry x="181.75" y="2740" width="40" height="40" as="geometry" />
        </mxCell>
        <mxCell id="Tx0HjF_n2Jl848Rfjk3a-58" style="edgeStyle=none;shape=connector;rounded=0;orthogonalLoop=1;jettySize=auto;html=1;labelBackgroundColor=default;strokeColor=default;fontFamily=Helvetica;fontSize=11;fontColor=default;endArrow=classic;" parent="WIyWlLk6GJQsqaUBKTNV-1" source="Tx0HjF_n2Jl848Rfjk3a-52" target="Tx0HjF_n2Jl848Rfjk3a-59" edge="1">
          <mxGeometry relative="1" as="geometry">
            <mxPoint x="202.875" y="3009.9999999999995" as="targetPoint" />
          </mxGeometry>
        </mxCell>
        <mxCell id="Tx0HjF_n2Jl848Rfjk3a-52" value="Sakura Glade Showdown" style="rounded=1;whiteSpace=wrap;html=1;fontFamily=Helvetica;fontSize=11;fontColor=default;" parent="WIyWlLk6GJQsqaUBKTNV-1" vertex="1">
          <mxGeometry x="109.5" y="2870" width="178" height="60" as="geometry" />
        </mxCell>
        <mxCell id="Tx0HjF_n2Jl848Rfjk3a-53" value="Good Ending" style="rounded=1;whiteSpace=wrap;html=1;fontFamily=Helvetica;fontSize=11;fillColor=#d5e8d4;strokeColor=#82b366;" parent="WIyWlLk6GJQsqaUBKTNV-1" vertex="1">
          <mxGeometry x="407.52" y="2870" width="212.48" height="100" as="geometry" />
        </mxCell>
        <mxCell id="Tx0HjF_n2Jl848Rfjk3a-56" value="Day 3" style="text;html=1;strokeColor=none;fillColor=none;align=center;verticalAlign=middle;whiteSpace=wrap;rounded=0;fontSize=11;fontFamily=Helvetica;fontColor=default;" parent="WIyWlLk6GJQsqaUBKTNV-1" vertex="1">
          <mxGeometry x="13.75" y="2860" width="60" height="30" as="geometry" />
        </mxCell>
        <mxCell id="Tx0HjF_n2Jl848Rfjk3a-60" value="accuse Fumiko" style="edgeStyle=none;shape=connector;rounded=0;orthogonalLoop=1;jettySize=auto;html=1;labelBackgroundColor=default;strokeColor=default;fontFamily=Helvetica;fontSize=11;fontColor=default;endArrow=classic;" parent="WIyWlLk6GJQsqaUBKTNV-1" source="Tx0HjF_n2Jl848Rfjk3a-59" target="Tx0HjF_n2Jl848Rfjk3a-61" edge="1">
          <mxGeometry relative="1" as="geometry">
            <mxPoint x="201.75" y="3109.9999999999995" as="targetPoint" />
          </mxGeometry>
        </mxCell>
        <mxCell id="Tx0HjF_n2Jl848Rfjk3a-62" style="edgeStyle=none;shape=connector;rounded=0;orthogonalLoop=1;jettySize=auto;html=1;labelBackgroundColor=default;strokeColor=default;fontFamily=Helvetica;fontSize=11;fontColor=default;endArrow=classic;" parent="WIyWlLk6GJQsqaUBKTNV-1" source="Tx0HjF_n2Jl848Rfjk3a-59" target="Tx0HjF_n2Jl848Rfjk3a-63" edge="1">
          <mxGeometry relative="1" as="geometry">
            <mxPoint x="320" y="3009.9999999999995" as="targetPoint" />
          </mxGeometry>
        </mxCell>
        <mxCell id="Tx0HjF_n2Jl848Rfjk3a-64" value="accuse someone else" style="edgeLabel;html=1;align=center;verticalAlign=middle;resizable=0;points=[];fontSize=11;fontFamily=Helvetica;fontColor=default;" parent="Tx0HjF_n2Jl848Rfjk3a-62" vertex="1" connectable="0">
          <mxGeometry x="0.0148" y="-1" relative="1" as="geometry">
            <mxPoint as="offset" />
          </mxGeometry>
        </mxCell>
        <mxCell id="Tx0HjF_n2Jl848Rfjk3a-59" value="" style="rhombus;whiteSpace=wrap;html=1;fontFamily=Helvetica;fontSize=11;fontColor=default;" parent="WIyWlLk6GJQsqaUBKTNV-1" vertex="1">
          <mxGeometry x="182.87" y="2960" width="40" height="40" as="geometry" />
        </mxCell>
        <mxCell id="Tx0HjF_n2Jl848Rfjk3a-61" value="Bittersweet Ending" style="rounded=1;whiteSpace=wrap;html=1;fontFamily=Helvetica;fontSize=11;fillColor=#dae8fc;strokeColor=#6c8ebf;" parent="WIyWlLk6GJQsqaUBKTNV-1" vertex="1">
          <mxGeometry x="30.04" y="3070" width="159.96" height="80" as="geometry" />
        </mxCell>
        <mxCell id="Tx0HjF_n2Jl848Rfjk3a-63" value="Bad Ending" style="rounded=1;whiteSpace=wrap;html=1;fontFamily=Helvetica;fontSize=11;fillColor=#f8cecc;strokeColor=#b85450;" parent="WIyWlLk6GJQsqaUBKTNV-1" vertex="1">
          <mxGeometry x="340.44" y="3070" width="163.69" height="80" as="geometry" />
        </mxCell>
        <mxCell id="wCaUfHLs_jQNqA13D1QE-5" style="edgeStyle=orthogonalEdgeStyle;rounded=0;orthogonalLoop=1;jettySize=auto;html=1;" edge="1" parent="WIyWlLk6GJQsqaUBKTNV-1" source="wCaUfHLs_jQNqA13D1QE-3" target="wCaUfHLs_jQNqA13D1QE-6">
          <mxGeometry relative="1" as="geometry">
            <mxPoint x="949.9300000000003" y="2100" as="targetPoint" />
          </mxGeometry>
        </mxCell>
        <mxCell id="wCaUfHLs_jQNqA13D1QE-3" value="&lt;font style=&quot;font-size: 11px;&quot;&gt;Dialogue&lt;/font&gt;" style="ellipse;whiteSpace=wrap;html=1;" vertex="1" parent="WIyWlLk6GJQsqaUBKTNV-1">
          <mxGeometry x="919.86" y="2030" width="60.14" height="30" as="geometry" />
        </mxCell>
        <mxCell id="wCaUfHLs_jQNqA13D1QE-6" value="&lt;font style=&quot;font-size: 11px;&quot;&gt;Points +5&lt;/font&gt;" style="rounded=0;whiteSpace=wrap;html=1;" vertex="1" parent="WIyWlLk6GJQsqaUBKTNV-1">
          <mxGeometry x="919.8599999999999" y="2080" width="60.07" height="30" as="geometry" />
        </mxCell>
      </root>
    </mxGraphModel>
  </diagram>
</mxfile>
